<svg width="91" height="107" viewBox="0 0 91 107" fill="none" xmlns="http://www.w3.org/2000/svg">
<g opacity="0.88">
<path fill-rule="evenodd" clip-rule="evenodd" d="M78.5896 3.5728C82.2171 5.85566 85.1818 9.37863 87.0989 13.6843C89.062 18.0446 90.1074 22.3689 90.1074 34.2902V55.23C90.1072 55.3621 90.074 55.4912 90.012 55.6009C89.95 55.7107 89.862 55.7962 89.759 55.8468C89.656 55.8973 89.5428 55.9105 89.4335 55.8848C89.3242 55.8591 89.2237 55.7956 89.1448 55.7023V55.6994L82.4883 47.7935C81.9597 47.1657 81.663 46.3148 81.6633 45.4278V35.7493C81.6633 26.806 80.8785 23.5634 79.4069 20.2941C77.9684 17.0652 75.7444 14.4236 73.0236 12.7121C70.3021 10.9796 67.6004 10.0505 60.2525 10.0313H49.2484C49.1372 10.0305 49.0286 9.99084 48.9363 9.91715C48.8441 9.84346 48.7722 9.73907 48.7299 9.61712C48.6875 9.49516 48.6765 9.36108 48.6983 9.23174C48.72 9.1024 48.7736 8.98357 48.8521 8.8902L55.5087 0.980973C55.7697 0.670171 56.0799 0.423524 56.4215 0.255184C56.7631 0.086844 57.1293 0.000124036 57.4993 0L61.2425 0C71.2787 0 74.919 1.2422 78.5896 3.5728ZM64.7777 16.7188C70.9953 16.7188 76.0349 22.7078 76.0349 30.0938V38.5618C76.0344 38.6924 76.0017 38.82 75.9407 38.9288C75.8798 39.0376 75.7933 39.1229 75.692 39.1741C75.5906 39.2253 75.4788 39.2402 75.3704 39.217C75.262 39.1937 75.1617 39.1334 75.0819 39.0433L66.0061 28.7354C65.4258 28.0454 64.7248 27.5147 63.9527 27.1809C63.3167 26.8953 62.6422 26.7493 61.9621 26.75H35.1703C35.0589 26.7498 34.95 26.7104 34.8574 26.6369C34.7648 26.5634 34.6927 26.4591 34.6501 26.337C34.6074 26.215 34.5963 26.0807 34.618 25.9511C34.6397 25.8215 34.6932 25.7025 34.7719 25.609L41.4383 17.6968C41.6993 17.387 42.0093 17.1411 42.3505 16.9733C42.6917 16.8055 43.0574 16.719 43.4268 16.7188H64.7777Z" fill="#E55638"/>
<path fill-rule="evenodd" clip-rule="evenodd" d="M82.6231 57.9885L89.2821 65.8973C89.8096 66.5259 90.1061 67.3763 90.1071 68.263V72.7127C90.1071 84.6344 89.0614 88.9591 87.0983 93.3194C85.1812 97.6251 82.2164 101.148 78.589 103.431C74.9188 105.758 71.2781 107 61.2419 107H43.619C43.5078 107 43.3993 106.96 43.3071 106.886C43.2149 106.812 43.1431 106.708 43.1008 106.586C43.0585 106.464 43.0475 106.33 43.0693 106.201C43.091 106.071 43.1445 105.953 43.2231 105.859V105.862L49.8796 97.953C50.1406 97.6422 50.4508 97.3955 50.7924 97.2272C51.134 97.0589 51.5003 96.9721 51.8702 96.972H60.016C67.5423 96.972 70.2701 96.0416 73.023 94.2912C75.7438 92.5797 77.9678 89.938 79.4063 86.7092C80.8779 83.4394 81.6627 80.1968 81.6627 71.2536V58.4608C81.6633 58.3292 81.6966 58.2007 81.7585 58.0915C81.8204 57.9823 81.9081 57.8971 82.0107 57.8467C82.1132 57.7963 82.226 57.7828 82.3349 57.808C82.4439 57.8333 82.5441 57.896 82.6231 57.9885ZM68.5524 41.2664L75.2114 49.1844C75.7387 49.813 76.0344 50.6636 76.0339 51.5501V76.9149C76.0339 84.3009 70.9943 90.29 64.7764 90.29H57.6488C57.5387 90.2893 57.4312 90.2505 57.3395 90.1782C57.2478 90.106 57.1759 90.0036 57.1327 89.8835C57.0896 89.7634 57.077 89.631 57.0965 89.5025C57.116 89.3741 57.1668 89.2552 57.2427 89.1606V89.1577L65.9173 78.3716C66.5001 77.6831 66.9478 76.851 67.2289 75.9344C67.4684 75.1789 67.5906 74.3783 67.5895 73.5712V41.7387C67.5897 41.6065 67.6228 41.4773 67.6848 41.3675C67.7469 41.2576 67.8349 41.172 67.938 41.1215C68.041 41.0709 68.1544 41.0577 68.2637 41.0835C68.3731 41.1093 68.4735 41.1729 68.5524 41.2664Z" fill="#F4C942"/>
<path fill-rule="evenodd" clip-rule="evenodd" d="M1.00483 51.2973L7.66628 59.2066C8.1938 59.8352 8.49034 60.6856 8.49129 61.5723V71.2504C8.49129 80.1936 9.27329 83.4362 10.7477 86.7056C12.1854 89.9339 14.4084 92.5755 17.1282 94.2876C19.8811 96.0388 22.6114 96.9688 30.138 96.9688H40.9037C41.0154 96.9684 41.1247 97.0073 41.2177 97.0805C41.3107 97.1537 41.3833 97.2581 41.4263 97.3803C41.4692 97.5025 41.4806 97.637 41.459 97.7669C41.4374 97.8968 41.3838 98.0162 41.3049 98.1099L34.6431 106.019C34.3825 106.33 34.0727 106.576 33.7315 106.744C33.3904 106.913 33.0245 107 32.655 107H28.9093C18.8731 107 15.2352 105.758 11.565 103.427C7.93651 101.145 4.97076 97.6219 3.05291 93.3158C1.10955 88.9994 0.0655878 84.7182 0.0447862 73.0652L0.0444336 51.7696C0.0450351 51.6381 0.0783697 51.5096 0.140263 51.4004C0.202157 51.2911 0.289858 51.206 0.392386 51.1556C0.494914 51.1051 0.60771 51.0917 0.716652 51.1169C0.825594 51.1421 0.925838 51.2049 1.00483 51.2973ZM15.0699 67.9568H15.0674L24.1482 78.2647C24.7276 78.9546 25.4277 79.4853 26.1991 79.8191C26.835 80.1058 27.5098 80.2518 28.1901 80.2501H54.9818C55.093 80.2509 55.2016 80.2906 55.2938 80.3643C55.386 80.4381 55.4578 80.5425 55.5001 80.6644C55.5424 80.7863 55.5534 80.9204 55.5316 81.0497C55.5098 81.179 55.4563 81.2978 55.3778 81.3911L48.7138 89.3033C48.1864 89.9285 47.4713 90.2803 46.7253 90.2813H25.3748C23.8948 90.2795 22.4296 89.932 21.0629 89.2588C19.6961 88.5857 18.4547 87.5999 17.4093 86.3579C16.3639 85.1159 15.5351 83.642 14.9703 82.0203C14.4054 80.3986 14.1156 78.6608 14.1172 76.9063V68.4383C14.1177 68.3077 14.1505 68.1801 14.2114 68.0713C14.2723 67.9625 14.3588 67.8772 14.4602 67.826C14.5615 67.7748 14.6733 67.7599 14.7817 67.7831C14.8901 67.8064 14.9904 67.8667 15.0702 67.9568H15.0699Z" fill="#7B8FEA"/>
<path fill-rule="evenodd" clip-rule="evenodd" d="M32.502 16.7188C32.6121 16.7194 32.7196 16.7582 32.8113 16.8305C32.903 16.9027 32.9749 17.0052 33.0181 17.1252C33.0613 17.2453 33.0739 17.3777 33.0543 17.5062C33.0348 17.6346 32.984 17.7535 32.9081 17.8481L24.2311 28.6376C23.6492 29.3261 23.2024 30.158 22.9223 31.0743C22.6818 31.8296 22.5587 32.6302 22.5588 33.4375V65.2701C22.5578 65.4014 22.5242 65.5295 22.4621 65.6384C22.4001 65.7472 22.3123 65.832 22.2099 65.8821C22.1075 65.9322 21.9948 65.9455 21.8861 65.9202C21.7773 65.8949 21.6773 65.8321 21.5984 65.7398L14.9394 57.8218C14.4124 57.1941 14.1167 56.3443 14.1172 55.4586V30.0938C14.1172 22.7078 19.1565 16.7188 25.3744 16.7188H32.502ZM46.5321 0C46.6434 0.000718491 46.752 0.0404182 46.8442 0.114106C46.9365 0.187794 47.0084 0.292181 47.0507 0.414137C47.0931 0.536093 47.104 0.670173 47.0823 0.799515C47.0605 0.928857 47.007 1.04769 46.9284 1.14106L40.2719 9.05028C40.0108 9.36084 39.7005 9.60734 39.359 9.77566C39.0174 9.94398 38.6512 10.0308 38.2813 10.0313H30.1355C22.6089 10.0313 19.8786 10.9617 17.1257 12.7121C14.4049 14.4236 12.1809 17.0652 10.7425 20.2941C9.28634 23.5292 8.50258 26.7383 8.48601 35.4693V48.5425C8.48534 48.674 8.45198 48.8024 8.3901 48.9115C8.32823 49.0206 8.24058 49.1057 8.13812 49.1562C8.03567 49.2066 7.92295 49.22 7.81407 49.1949C7.70519 49.1698 7.60497 49.1071 7.52596 49.0148L0.871914 41.106C0.609686 40.7954 0.40164 40.4267 0.259659 40.0207C0.117677 39.6148 0.0445431 39.1797 0.0444336 38.7403L0.0444336 34.2902C0.0444336 22.3689 1.0898 18.0437 3.05291 13.6843C4.97001 9.37863 7.93474 5.85566 11.5622 3.5728C15.1961 1.26561 18.8004 0.0250781 28.6079 0H46.5325H46.5321Z" fill="#D97EE8"/>
</g>
</svg>
